PathFileType	4	(X/Y/Z)	C:\Users\Basilio\Documents\Thesis Gigler\squatting_fais\c3dfiles\047\SLS_pre_front1\markers_experimental.trc
DataRate	CameraRate	NumFrames	NumMarkers	Units	OrigDataRate	OrigDataStartFrame	OrigNumFrames
200.000000	200.000000	4	60	mm	200.000000	604	1209
Frame#	Time	FHD			LBHD			RBHD			C7			T10			CLAV			LSHO			LUUPA			LMUPA			LDUPA			LLEP			LRAD			LUL			LRFIN			RSHO			RUPA1			RMUPA			RDUPA			RLEP			RMEP			RRAD			RUL			RUFIN			LASI			RASI			USACR			LSACR			RSACR			LTHI1			LTHI2			LTHI3			LTHI4			LLFC			LMFC			LTIB1			LTIB2			LTIB3			LTIB4			LLMAL			LMMAL			LMT1			LMT2			LMT5			RTHI			RTHI2			RTHI3			RTHI4			RLFC			RMFC			RTIB1			RTIB2			RTIB3			RTIB4			RLMAL			RMMAL			RHEE			RMT1			RMT2			RMT5			LMEP			
		X1	Y1	Z1	X2	Y2	Z2	X3	Y3	Z3	X4	Y4	Z4	X5	Y5	Z5	X6	Y6	Z6	X7	Y7	Z7	X8	Y8	Z8	X9	Y9	Z9	X10	Y10	Z10	X11	Y11	Z11	X12	Y12	Z12	X13	Y13	Z13	X14	Y14	Z14	X15	Y15	Z15	X16	Y16	Z16	X17	Y17	Z17	X18	Y18	Z18	X19	Y19	Z19	X20	Y20	Z20	X21	Y21	Z21	X22	Y22	Z22	X23	Y23	Z23	X24	Y24	Z24	X25	Y25	Z25	X26	Y26	Z26	X27	Y27	Z27	X28	Y28	Z28	X29	Y29	Z29	X30	Y30	Z30	X31	Y31	Z31	X32	Y32	Z32	X33	Y33	Z33	X34	Y34	Z34	X35	Y35	Z35	X36	Y36	Z36	X37	Y37	Z37	X38	Y38	Z38	X39	Y39	Z39	X40	Y40	Z40	X41	Y41	Z41	X42	Y42	Z42	X43	Y43	Z43	X44	Y44	Z44	X45	Y45	Z45	X46	Y46	Z46	X47	Y47	Z47	X48	Y48	Z48	X49	Y49	Z49	X50	Y50	Z50	X51	Y51	Z51	X52	Y52	Z52	X53	Y53	Z53	X54	Y54	Z54	X55	Y55	Z55	X56	Y56	Z56	X57	Y57	Z57	X58	Y58	Z58	X59	Y59	Z59	X60	Y60	Z60	

605	3.02	-58.65712356567384	1384.965698242188	-1098.95849609375	-237.9010162353516	1366.717529296875	-1128.923583984375	-218.1783752441407	1369.015258789063	-981.6384277343752	-294.2926330566407	1216.784545898438	-1052.763549804688	-439.7042236328126	953.7085571289065	-1008.2666015625	-169.3511962890625	1115.860107421875	-1070.96142578125	-230.3083801269532	1180.35791015625	-1206.862182617188	-143.665023803711	1100.010009765625	-1329.622924804688	-110.347526550293	1136.795776367188	-1319.712036132813	-76.46980285644533	1097.70751953125	-1346.688598632813	-11.23155689239502	1109.762817382813	-1359.1220703125	255.5829162597657	1088.322875976563	-1323.620849609375	246.5602264404297	1102.3486328125	-1399.650024414063	338.6224365234376	1111.813110351563	-1349.290771484375	-191.5924072265625	1194.251220703125	-935.483337402344	-65.21118927001955	1120.467407226563	-837.254089355469	-36.93942260742188	1149.36328125	-865.2229614257815	3.277007102966309	1108.618896484375	-845.2156982421877	71.23091888427736	1113.182250976563	-864.0300903320315	65.00675201416017	1044.792114257813	-908.2183227539065	316.9629211425782	1081.132202148438	-981.5643310546877	325.7314147949219	1098.19873046875	-907.5895996093752	397.3724060058595	1097.78076171875	-984.4459228515627	-338.3806152343751	704.6498413085939	-1081.812133789063	-329.0970153808594	741.5238037109376	-856.576110839844	-507.3929138183595	809.6065673828127	-975.8445434570315	-523.4073486328126	778.2537841796877	-1000.265380859375	-516.1361083984376	780.978454589844	-944.7045898437502	-347.1870422363282	585.0194091796876	-1156.07177734375	-261.6683349609376	574.6568603515626	-1163.085693359375	-236.1534423828126	614.7666625976564	-1150.917724609375	-231.6709136962891	523.1972656250001	-1167.278198242188	-109.7827682495117	416.2461242675782	-1147.102783203125	-68.27862548828126	434.4868164062501	-1020.836791992188	-149.7497711181641	274.0404968261719	-1023.934631347656	-180.1397399902344	226.9195861816407	-1090.920288085938	-168.8591613769532	222.968978881836	-1045.15283203125	-227.9894561767579	177.3782653808594	-1009.083984375	-322.7728576660157	114.0953903198242	-1053.23095703125	-298.5638427734376	137.9661560058594	-966.189636230469	-190.8153381347657	61.88805007934572	-978.0909423828127	-188.5826416015625	58.83835983276369	-1022.724792480469	-237.9870758056641	43.86626815795899	-1067.560302734375	-310.0667724609376	601.6940917968751	-753.2823486328126	-243.0352172851563	607.6428833007814	-756.4907226562501	-229.0743103027344	635.1702270507814	-768.257263183594	-187.7449340820313	544.2092895507814	-762.5428466796876	-57.39469528198244	482.4109497070314	-787.874450683594	-44.18402481079102	489.8920288085939	-912.0312500000002	59.160701751709	421.2479858398439	-809.6752929687502	77.24710083007814	322.4139404296876	-765.1593017578126	106.2609786987305	351.9088745117188	-785.955261230469	143.0522766113282	322.4559326171876	-821.547058105469	205.4416656494141	174.3486480712891	-787.1444091796877	208.2813568115235	194.9341278076172	-876.660339355469	178.5897674560547	108.0643920898438	-832.2229003906252	353.0071105957032	215.5071716308594	-871.0054931640627	357.2780456542969	228.3072967529297	-828.3836059570315	338.7264099121094	185.4655914306641	-767.9051513671876	4.276344776153565	1048.485473632813	-1312.79248046875	
606	3.025	-58.55460739135744	1384.810302734375	-1098.859619140625	-237.8497161865235	1366.510009765625	-1128.827270507813	-218.0710144042969	1368.794189453125	-981.565368652344	-294.1403198242188	1216.591674804688	-1052.679443359375	-439.4499511718751	953.1663208007815	-1008.101867675781	-169.3368530273438	1115.542724609375	-1071.025268554688	-230.2831115722657	1180.132690429688	-1206.792724609375	-143.620101928711	1099.756713867188	-1329.585205078125	-109.9322128295899	1136.621215820313	-1319.496459960938	-76.38314056396486	1097.430053710938	-1346.737915039063	-11.2873592376709	1109.37744140625	-1358.581298828125	255.5961151123047	1088.112060546875	-1323.684692382813	246.5479736328126	1102.224243164063	-1399.594848632813	338.7063293457032	1111.712158203125	-1349.337036132813	-191.471420288086	1194.131591796875	-935.3504638671877	-65.03892517089845	1120.061279296875	-837.2396240234377	-36.77798461914063	1149.083862304688	-865.1939086914065	3.520847082138062	1108.280029296875	-845.2678833007815	71.37829589843751	1112.922241210938	-863.9441528320315	65.25765991210939	1044.542114257813	-908.2706298828127	317.3880615234376	1081.066162109375	-981.6616210937502	325.8889160156251	1098.077514648438	-907.4645996093752	397.4742431640626	1097.93798828125	-984.1843261718752	-338.2271728515626	704.6168212890626	-1081.913940429688	-328.9986267089844	741.3929443359376	-856.6867675781252	-507.3052978515626	809.284118652344	-975.8955688476565	-523.3380737304689	777.9114379882815	-1000.323852539063	-516.1444702148439	780.579040527344	-944.7044677734377	-346.9934997558594	584.7710571289064	-1156.049682617188	-261.3997192382813	574.3804931640626	-1162.938842773438	-235.7900085449219	614.4594116210939	-1150.79638671875	-231.3983917236329	522.9268798828126	-1167.146362304688	-109.4136199951172	416.0977783203126	-1146.866088867188	-67.78330230712892	434.5194396972657	-1020.598205566406	-149.5875701904297	273.8838195800782	-1023.618530273438	-179.7622680664063	226.8353424072266	-1090.568359375	-168.7218170166016	222.9268493652344	-1044.9072265625	-227.9481506347657	177.3347320556641	-1008.896118164063	-322.9741516113282	113.9641036987305	-1053.188598632813	-298.5762634277344	137.6405334472657	-965.8049926757815	-190.4920349121094	61.8425750732422	-978.1234130859377	-188.8638153076172	58.73166275024415	-1022.678771972656	-237.9108581542969	44.02764511108399	-1067.465454101563	-310.0142517089844	601.5690917968751	-753.4508056640626	-242.8735809326172	607.4595947265626	-756.5336914062501	-228.9823455810547	635.0086059570314	-768.3017578125002	-187.6984100341797	544.1244506835939	-762.6278686523439	-57.27964019775392	482.1074218750001	-788.052429199219	-44.08670043945313	489.6814575195314	-912.074157714844	59.37970352172853	421.1209106445314	-809.8455810546877	77.35095214843751	322.2217407226563	-765.0822753906251	106.4714050292969	351.8433532714844	-786.1067504882815	143.4498901367188	322.4399414062501	-822.0015869140627	205.7886352539063	174.3463897705078	-787.3865356445315	208.6669158935547	194.9195098876954	-876.922302246094	179.0451049804688	108.0553436279297	-832.4248657226565	353.6116333007813	215.4555969238282	-871.3568115234377	357.5433349609376	228.2794189453126	-828.6278076171877	339.1412048339844	185.3832092285157	-767.9379882812501	4.47282886505127	1048.109985351563	-1312.767456054688	
607	3.03	-58.57966613769533	1384.55078125	-1098.640991210938	-237.8397064208985	1366.30810546875	-1128.710571289063	-217.7646484375001	1368.494506835938	-981.5076293945315	-293.8356933593751	1216.282470703125	-1052.658447265625	-439.2806396484376	952.9613037109377	-1008.053283691406	-169.2174072265625	1115.341430664063	-1070.976684570313	-230.2113189697266	1179.961669921875	-1206.704467773438	-143.6484069824219	1099.48193359375	-1329.372924804688	-109.949691772461	1136.46337890625	-1319.436157226563	-76.36618041992189	1097.258911132813	-1346.700927734375	-11.14785289764404	1109.474975585938	-1359.080444335938	255.6048889160157	1087.985473632813	-1323.66015625	246.7069244384766	1102.141845703125	-1399.57177734375	338.7312622070313	1111.63525390625	-1349.29833984375	-191.3917846679688	1193.918090820313	-935.175476074219	-64.86882781982423	1119.713012695313	-837.314392089844	-36.75256347656251	1148.658569335938	-864.910339355469	3.685887575149537	1107.96240234375	-845.1203613281252	71.54613494873048	1112.599853515625	-863.8677368164065	65.52079010009767	1044.363525390625	-908.4620361328127	317.4330444335938	1080.99462890625	-981.3419189453127	326.0185241699219	1097.750122070313	-907.263366699219	397.6081848144532	1097.820068359375	-984.003845214844	-338.0851440429688	704.4206542968751	-1081.880249023438	-329.0087280273438	741.2730102539064	-856.6960449218752	-507.1909179687501	809.0390625000002	-975.9462890625002	-523.2377319335939	777.6647949218752	-1000.34521484375	-516.1112670898439	780.3377075195315	-944.793151855469	-346.6889953613282	584.4488525390626	-1156.091796875	-261.0822143554688	574.0289306640626	-1162.7841796875	-235.5278778076172	614.1180419921876	-1150.703491210938	-231.1807708740235	522.6314697265626	-1167.00927734375	-109.0338592529297	415.8747558593751	-1146.638061523438	-67.54222106933595	434.5387573242189	-1020.434936523438	-149.4591827392578	273.9098510742188	-1023.269653320313	-179.5359191894532	226.5742492675782	-1090.224853515625	-168.5744018554688	222.8426818847657	-1044.606811523438	-227.9109497070313	177.3313598632813	-1008.682006835938	-323.0111389160157	114.0150299072266	-1053.121704101563	-298.5288085937501	137.5470581054688	-965.5947265625002	-190.5599975585938	61.73272705078126	-977.9644165039065	-188.80810546875	58.78109359741212	-1022.60400390625	-237.8186035156251	44.15039443969727	-1067.376342773438	-309.8176879882813	601.4500732421876	-753.4568481445314	-242.6961822509766	607.3402099609376	-756.5343627929689	-228.8241271972657	634.8990478515626	-768.281921386719	-187.6082000732422	543.9343261718751	-762.3142700195314	-57.10812759399415	481.7637023925782	-788.2070922851565	-44.03741836547852	489.4744262695314	-912.1270751953127	59.53910446166994	421.0120849609376	-810.0203247070315	77.28556060791017	321.9080810546876	-764.3950195312501	106.6588821411133	351.7030334472657	-786.347351074219	143.9057769775391	322.4089660644532	-822.2640380859377	206.1458282470704	174.3769683837891	-787.753356933594	208.8743591308594	194.8759307861329	-877.1785278320315	179.584716796875	107.6067504882813	-832.8868408203127	354.1230773925782	215.5269775390626	-871.8230590820315	357.7770690917969	228.4249267578126	-828.941589355469	339.5045471191407	185.4673156738282	-768.4072875976565	4.569264888763429	1047.844360351563	-1312.684326171875	
608	3.035	-58.02943420410158	1384.494873046875	-1098.984008789063	-237.734603881836	1366.087524414063	-1128.655639648438	-217.5592498779297	1368.282958984375	-981.398620605469	-293.7131347656251	1215.941284179688	-1052.503662109375	-439.3840637207032	952.995056152344	-1008.147338867188	-169.1985931396485	1115.11279296875	-1070.9853515625	-230.1189270019532	1179.792602539063	-1206.65185546875	-143.5407104492188	1099.389892578125	-1329.318603515625	-109.805404663086	1136.321044921875	-1319.4150390625	-76.27851867675783	1097.135986328125	-1346.670776367188	-11.10743141174317	1109.407104492188	-1359.101806640625	255.6486206054688	1087.882080078125	-1323.654541015625	246.8466796875001	1102.03857421875	-1399.571655273438	338.8424072265626	1111.576049804688	-1349.330932617188	-191.3689117431641	1193.672119140625	-935.0047607421877	-64.58821868896486	1119.4345703125	-837.210632324219	-36.54576492309571	1148.369140625	-864.8904418945315	3.731301546096803	1107.70703125	-845.233581542969	71.72825622558595	1112.399536132813	-863.7705688476565	65.66460418701173	1044.138549804688	-908.2688598632815	317.6752014160157	1080.887451171875	-981.208435058594	326.0838317871094	1097.626953125	-906.9121093750002	397.9543457031251	1097.782470703125	-983.8809814453127	-337.7917480468751	704.3292846679689	-1081.795654296875	-329.0076904296876	740.9946289062501	-856.5526123046877	-507.0882873535157	808.8313598632815	-976.0042724609377	-523.1242065429689	777.448181152344	-1000.412963867188	-515.9053955078126	780.047302246094	-944.8828735351565	-346.5861511230469	584.1019287109376	-1155.976684570313	-260.7855529785157	573.7066650390626	-1162.705932617188	-235.1959381103516	613.8371582031251	-1150.64501953125	-230.8941040039063	522.3215942382814	-1166.837646484375	-108.6226348876953	415.7799682617189	-1146.39404296875	-67.29521942138673	434.4868469238282	-1020.258483886719	-149.3292541503907	273.9128723144532	-1022.945739746094	-179.3084259033203	226.3679656982422	-1089.879638671875	-168.4503173828125	222.7219390869141	-1044.294311523438	-227.9288940429688	177.3074340820313	-1008.206604003906	-323.0007629394532	114.123046875	-1052.975830078125	-298.5073547363282	137.5032806396485	-965.4351806640627	-190.5635681152344	61.65708160400392	-977.8880004882815	-188.6807250976563	58.77707290649415	-1022.466674804688	-237.8509216308594	44.23348999023438	-1067.275512695313	-309.6465148925782	601.1682739257814	-753.3471679687501	-242.6918029785157	607.1978759765626	-756.5607910156251	-228.5985412597657	634.7113037109376	-768.4024047851565	-187.5435333251953	543.8966674804689	-762.5274047851564	-56.96683502197267	481.4697570800782	-788.4754028320315	-42.68333816528321	489.4026489257814	-912.1301879882815	59.56318283081056	420.7496948242189	-809.8627929687502	77.78094482421876	321.8007202148438	-765.3153076171876	106.9109497070313	351.5134887695313	-786.6667480468752	144.020263671875	322.4490356445313	-822.371765136719	206.2499694824219	174.3301544189453	-787.8297119140627	209.2611236572266	194.9159088134766	-877.440124511719	179.9686279296875	107.6759185791016	-833.248718261719	354.1372985839844	215.5557861328126	-872.2527465820315	357.9089050292969	228.1481170654297	-829.138122558594	339.8228454589844	185.4833984375	-768.9189453125002	4.703278064727784	1047.48291015625	-1312.74169921875	
